<?xml version="1.0" encoding="UTF-8"?>
<svg width="268px" height="265px" viewBox="0 0 268 265" version="1.1" xmlns="http://www.w3.org/2000/svg" xmlns:xlink="http://www.w3.org/1999/xlink">
    <!-- Generator: Sketch 56.3 (81716) - https://sketch.com -->
    <title>Group 8</title>
    <desc>Created with Sketch.</desc>
    <defs>
        <polygon id="path-1" points="0 0 130 0 130 130 0 130"></polygon>
    </defs>
    <g id="Homepage" stroke="none" stroke-width="1" fill="none" fill-rule="evenodd">
        <g id="Home-Frame2" transform="translate(-585.000000, -1963.000000)">
            <g id="Group-8" transform="translate(586.000000, 1964.000000)">
                <g id="circles" stroke="#DAEAEC" stroke-width="1.54">
                    <path d="M126.5,263 C196.364873,263 253,206.811296 253,137.500362 C253,68.1887044 196.364873,12 126.5,12 C56.6358569,12 0,68.1887044 0,137.500362 C0,206.811296 56.6358569,263 126.5,263 Z" id="Stroke-1"></path>
                    <path d="M133.5,251 C203.364143,251 260,194.811857 260,125.5 C260,56.1881427 203.364143,0 133.5,0 C63.6358569,0 7,56.1881427 7,125.5 C7,194.811857 63.6358569,251 133.5,251 Z" id="Stroke-3"></path>
                    <path d="M137.500365,261 C207.364709,261 264,204.812019 264,135.500362 C264,66.1887044 207.364709,10 137.500365,10 C67.6352907,10 11,66.1887044 11,135.500362 C11,204.812019 67.6352907,261 137.500365,261 Z" id="Stroke-5"></path>
                    <path d="M139.499635,261 C209.364709,261 266,204.811857 266,135.500724 C266,66.1881427 209.364709,10 139.499635,10 C69.6352907,10 13,66.1881427 13,135.500724 C13,204.811857 69.6352907,261 139.499635,261" id="Stroke-7"></path>
                    <path d="M139.499635,261 C209.364709,261 266,204.811857 266,135.500724 C266,66.1881427 209.364709,10 139.499635,10 C69.6352907,10 13,66.1881427 13,135.500724 C13,204.811857 69.6352907,261 139.499635,261 Z" id="Stroke-9"></path>
                </g>
                <g id="Group-3" transform="translate(72.000000, 68.000000)">
                    <mask id="mask-2" fill="white">
                        <use xlink:href="#path-1"></use>
                    </mask>
                    <g id="Clip-2"></g>
                    <path d="M106.675078,69.6637402 L106.675078,97.0316382 L106.675078,101.074623 C106.675078,102.00762 106.05619,103.251615 105.120083,103.562614 C104.501195,103.562614 104.187087,103.873613 103.565089,103.873613 L95.7901147,103.873613 L93.302123,103.873613 C92.6801251,103.873613 92.0612372,103.562614 91.7471282,102.940616 C91.4392393,102.318618 91.1251303,101.696621 91.1251303,101.385622 L91.1251303,99.2086301 L91.1251303,75.2617194 C91.1251303,72.4627298 91.1251303,69.9747391 90.8141314,67.7977472 C90.8141314,65.6207553 89.8842445,63.7547623 88.9512476,61.8887692 C88.0151407,60.6447739 86.7742549,59.7117773 85.2192601,59.0897797 C83.6642653,58.467782 82.1092705,58.1567831 80.5542758,58.1567831 C78.685172,58.1567831 77.1301772,58.467782 75.5751824,59.4007785 L73.7091887,60.333775 C71.224307,62.1997681 69.6693122,64.6877588 69.6693122,67.7977472 C69.0442043,71.5297333 69.0442043,74.9507205 69.0442043,78.6827066 L69.0442043,101.074623 C69.0442043,101.696621 69.0442043,102.318618 68.7363154,102.629617 C68.4222064,103.251615 67.8002085,103.873613 66.8672116,104.184612 C65.9342148,104.49561 64.6902189,104.49561 63.7572221,104.49561 L58.1592408,104.49561 L55.6743592,104.49561 C55.0492513,104.49561 54.4272533,104.184612 53.8052554,103.873613 C53.1863675,102.940616 52.8722586,102.00762 53.1863675,101.074623 L53.1863675,97.6536359 L53.1863675,51.9368063 L53.1863675,49.7598144 C53.1863675,49.1378168 53.4942565,48.5158191 53.8052554,48.2048202 C54.1193644,47.8938214 54.1193644,47.8938214 54.4272533,47.5828226 C54.7413623,47.5828226 55.0492513,47.2718237 55.3602502,47.2718237 L55.9822481,47.2718237 L57.229354,47.2718237 L63.1352242,47.2718237 L64.6902189,47.2718237 C65.3122169,47.2718237 65.6263258,47.2718237 66.2452137,47.5828226 C66.8672116,47.8938214 67.1813206,48.2048202 67.1813206,48.5158191 C67.1813206,48.8268179 67.1813206,49.4488156 67.4892096,49.7598144 C67.8002085,51.0038098 68.1143175,52.2478052 69.0442043,52.558804 C69.3552033,52.558804 69.9772012,52.558804 70.2913102,51.9368063 C70.5991991,51.6258075 70.9101981,51.3148086 70.9101981,51.3148086 C71.532196,50.692811 72.1541939,50.0708133 73.0871908,49.4488156 C73.4012997,49.1378168 73.7091887,48.8268179 74.0201877,48.8268179 C75.5751824,47.8938214 77.1301772,47.2718237 78.685172,46.9608249 L78.999281,46.9608249 C79.6212789,46.649826 80.2401668,46.649826 80.8621647,46.649826 L81.7951616,46.649826 C83.9721543,46.3388272 86.149147,46.0278284 88.3292497,46.3388272 C91.1251303,46.3388272 93.9241209,46.9608249 96.4121126,48.2048202 C99.2142132,49.4488156 101.699095,51.6258075 103.25409,54.4247971 C103.879198,55.3577936 104.187087,55.9797913 104.501195,56.9127878 C104.809084,57.8457843 105.120083,58.7787808 105.434192,59.7117773 C105.434192,60.333775 105.742081,60.9557727 105.742081,61.2667715 C105.742081,61.8887692 105.742081,62.1997681 106.05619,62.8217657 L106.05619,63.7547623 C106.364079,64.6877588 106.364079,65.9317541 106.364079,66.8647507 L106.675078,69.6637402 Z M41.6794061,102.629617 C41.0542982,103.251615 40.4323003,103.562614 39.8103023,103.873613 C39.1914144,104.184612 38.5694165,104.184612 38.2553076,103.873613 L36.3893138,103.873613 L29.8614457,103.873613 L27.684453,103.873613 C27.0593451,103.873613 26.4373472,103.562614 26.1294582,103.251615 C25.8153493,102.940616 25.5043503,102.318618 25.5043503,101.696621 L25.5043503,99.5196289 L25.5043503,33.5878748 L25.5043503,29.8558887 C25.5043503,28.9228921 25.5043503,27.6788968 26.1294582,26.7459003 C26.4373472,26.1239026 27.0593451,25.8129037 27.684453,25.5019049 L28.3064509,25.5019049 L28.9253388,25.5019049 L38.5694165,25.5019049 L40.7464092,25.5019049 C41.3652971,25.5019049 41.987295,25.8129037 42.301404,26.4349014 C42.609293,27.0568991 42.9202919,27.6788968 42.9202919,28.3008945 L42.9202919,31.099884 L42.9202919,96.7206393 L42.9202919,99.8306277 C42.301404,101.074623 42.301404,102.00762 41.6794061,102.629617 L41.6794061,102.629617 Z M64.37922,0 C28.6143399,0.31099884 -0.305453175,29.5448898 0.00243579334,65.6207553 C0.31654474,101.385622 29.5473367,130.308514 65.6263258,129.997515 C101.391206,129.686516 130,100.763624 130,64.9987576 C129.689001,28.9228921 100.455099,0 64.37922,0 L64.37922,0 Z" id="Fill-1" fill="#165C7D" mask="url(#mask-2)"></path>
                </g>
            </g>
        </g>
    </g>
</svg>